<svg width="60" height="60" viewBox="0 0 60 60" fill="none" xmlns="http://www.w3.org/2000/svg">
<path d="M30.3792 0.833332H29.6209C13.7542 0.833332 0.833374 13.7542 0.833374 29.6208V30.3792C0.833374 46.2458 13.7542 59.1667 29.6209 59.1667H30.3792C46.2459 59.1667 59.1667 46.2458 59.1667 30.3792V29.6208C59.1667 13.7542 46.2459 0.833332 30.3792 0.833332ZM40.5584 31.5458L33.3834 38.75C32.9459 39.1583 32.3917 39.3917 31.8375 39.3917C31.2834 39.3917 30.7 39.1583 30.2917 38.75C29.4167 37.875 29.4167 36.5042 30.2917 35.6583L33.7334 32.1875H20.9875C19.7625 32.1875 18.8 31.1958 18.8 30C18.8 28.8042 19.7625 27.8125 20.9875 27.8125H33.7334L30.2917 24.3417C29.4167 23.4958 29.4167 22.125 30.2917 21.25C31.1375 20.4042 32.5084 20.4042 33.3834 21.25L40.5584 28.4542C41.4334 29.3 41.4334 30.7 40.5584 31.5458Z" fill="url(#paint0_linear_1005_749)"/>
<defs>
<linearGradient id="paint0_linear_1005_749" x1="-4.64996" y1="30.4944" x2="50.5334" y2="30.4944" gradientUnits="userSpaceOnUse">
<stop stop-color="#16398B"/>
<stop offset="1" stop-color="#56BDE1"/>
</linearGradient>
</defs>
</svg>
