<svg width="24" height="24" viewBox="0 0 24 24" fill="none" xmlns="http://www.w3.org/2000/svg">
<g id="arrow-right">
<path id="arrow-right_2" d="M21.353 12.3543L14.353 19.3543C14.255 19.4523 14.127 19.5003 13.999 19.5003C13.871 19.5003 13.743 19.4513 13.645 19.3543C13.45 19.1593 13.45 18.8422 13.645 18.6472L19.791 12.5012H3C2.724 12.5012 2.5 12.2772 2.5 12.0012C2.5 11.7252 2.724 11.5012 3 11.5012H19.793L13.647 5.35523C13.452 5.16023 13.452 4.8432 13.647 4.6482C13.842 4.4532 14.159 4.4532 14.354 4.6482L21.354 11.6482C21.4 11.6942 21.4369 11.7503 21.4619 11.8113C21.5129 11.9333 21.5129 12.0714 21.4619 12.1934C21.4359 12.2524 21.399 12.3083 21.353 12.3543Z" fill="#0B1E1D"/>
</g>
</svg>
