<svg width="36" height="36" viewBox="0 0 36 36" fill="none" xmlns="http://www.w3.org/2000/svg">
<g id="Clipboard">
<g id="Group">
<path id="Vector" d="M22.7783 6.43481H25.7097C27.4197 6.43481 28.7997 7.81483 28.7997 9.52483V28.7998C28.7997 30.5098 27.4197 31.8898 25.7097 31.8898H10.2897C8.5797 31.8898 7.19971 30.5098 7.19971 28.7998V9.52483C7.19971 7.81483 8.5797 6.43481 10.2897 6.43481H13.3797" stroke="#00AA4E" stroke-width="1.5" stroke-linecap="round" stroke-linejoin="round"/>
<path id="Vector_2" d="M21.0899 8.74486H14.9249C14.0699 8.74486 13.3799 8.05486 13.3799 7.19986V5.65486C13.3799 4.79986 14.0699 4.10986 14.9249 4.10986H21.0899C21.9449 4.10986 22.6349 4.79986 22.6349 5.65486V7.19986C22.6199 8.05486 21.9299 8.74486 21.0899 8.74486Z" stroke="#00AA4E" stroke-width="1.5" stroke-linecap="round" stroke-linejoin="round"/>
<path id="Vector_3" d="M11.8345 13.3799H13.3795" stroke="#00AA4E" stroke-width="1.5" stroke-linecap="round" stroke-linejoin="round"/>
<path id="Vector_4" d="M11.8345 19.5449H24.1645" stroke="#00AA4E" stroke-width="1.5" stroke-linecap="round" stroke-linejoin="round"/>
<path id="Vector_5" d="M11.8345 25.71H24.1645" stroke="#00AA4E" stroke-width="1.5" stroke-linecap="round" stroke-linejoin="round"/>
</g>
</g>
</svg>
