<svg width="48" height="48" viewBox="0 0 48 48" fill="none" xmlns="http://www.w3.org/2000/svg">
<g id="calculator 1">
<path id="Vector" d="M33 8.25H15C13.725 8.25 12.75 9.225 12.75 10.5V13.5C12.75 14.775 13.725 15.75 15 15.75H33C34.275 15.75 35.25 14.775 35.25 13.5V10.5C35.25 9.225 34.275 8.25 33 8.25ZM33.75 13.5C33.75 13.95 33.45 14.25 33 14.25H15C14.55 14.25 14.25 13.95 14.25 13.5V10.5C14.25 10.05 14.55 9.75 15 9.75H33C33.45 9.75 33.75 10.05 33.75 10.5V13.5Z" fill="url(#paint0_linear_921_653)"/>
<path id="Vector_2" d="M36 3.75H12C10.725 3.75 9.75 4.725 9.75 6V42C9.75 43.275 10.725 44.25 12 44.25H36C37.275 44.25 38.25 43.275 38.25 42V6C38.25 4.725 37.275 3.75 36 3.75ZM36.75 42C36.75 42.45 36.45 42.75 36 42.75H12C11.55 42.75 11.25 42.45 11.25 42V6C11.25 5.55 11.55 5.25 12 5.25H36C36.45 5.25 36.75 5.55 36.75 6V42Z" fill="url(#paint1_linear_921_653)"/>
<path id="Vector_3" d="M17.25 18.75H15.75C14.475 18.75 13.5 19.725 13.5 21V22.5C13.5 23.775 14.475 24.75 15.75 24.75H17.25C18.525 24.75 19.5 23.775 19.5 22.5V21C19.5 19.725 18.525 18.75 17.25 18.75ZM18 22.5C18 22.95 17.7 23.25 17.25 23.25H15.75C15.3 23.25 15 22.95 15 22.5V21C15 20.55 15.3 20.25 15.75 20.25H17.25C17.7 20.25 18 20.55 18 21V22.5ZM24.75 18.75H23.25C21.975 18.75 21 19.725 21 21V22.5C21 23.775 21.975 24.75 23.25 24.75H24.75C26.025 24.75 27 23.775 27 22.5V21C27 19.725 26.025 18.75 24.75 18.75ZM25.5 22.5C25.5 22.95 25.2 23.25 24.75 23.25H23.25C22.8 23.25 22.5 22.95 22.5 22.5V21C22.5 20.55 22.8 20.25 23.25 20.25H24.75C25.2 20.25 25.5 20.55 25.5 21V22.5ZM32.25 18.75H30.75C29.475 18.75 28.5 19.725 28.5 21V22.5C28.5 23.775 29.475 24.75 30.75 24.75H32.25C33.525 24.75 34.5 23.775 34.5 22.5V21C34.5 19.725 33.525 18.75 32.25 18.75ZM33 22.5C33 22.95 32.7 23.25 32.25 23.25H30.75C30.3 23.25 30 22.95 30 22.5V21C30 20.55 30.3 20.25 30.75 20.25H32.25C32.7 20.25 33 20.55 33 21V22.5ZM17.25 26.25H15.75C14.475 26.25 13.5 27.225 13.5 28.5V30C13.5 31.275 14.475 32.25 15.75 32.25H17.25C18.525 32.25 19.5 31.275 19.5 30V28.5C19.5 27.225 18.525 26.25 17.25 26.25ZM18 30C18 30.45 17.7 30.75 17.25 30.75H15.75C15.3 30.75 15 30.45 15 30V28.5C15 28.05 15.3 27.75 15.75 27.75H17.25C17.7 27.75 18 28.05 18 28.5V30ZM24.75 26.25H23.25C21.975 26.25 21 27.225 21 28.5V30C21 31.275 21.975 32.25 23.25 32.25H24.75C26.025 32.25 27 31.275 27 30V28.5C27 27.225 26.025 26.25 24.75 26.25ZM25.5 30C25.5 30.45 25.2 30.75 24.75 30.75H23.25C22.8 30.75 22.5 30.45 22.5 30V28.5C22.5 28.05 22.8 27.75 23.25 27.75H24.75C25.2 27.75 25.5 28.05 25.5 28.5V30ZM32.25 26.25H30.75C29.475 26.25 28.5 27.225 28.5 28.5V37.5C28.5 38.775 29.475 39.75 30.75 39.75H32.25C33.525 39.75 34.5 38.775 34.5 37.5V28.5C34.5 27.225 33.525 26.25 32.25 26.25ZM33 37.5C33 37.95 32.7 38.25 32.25 38.25H30.75C30.3 38.25 30 37.95 30 37.5V28.5C30 28.05 30.3 27.75 30.75 27.75H32.25C32.7 27.75 33 28.05 33 28.5V37.5ZM17.25 33.75H15.75C14.475 33.75 13.5 34.725 13.5 36V37.5C13.5 38.775 14.475 39.75 15.75 39.75H17.25C18.525 39.75 19.5 38.775 19.5 37.5V36C19.5 34.725 18.525 33.75 17.25 33.75ZM18 37.5C18 37.95 17.7 38.25 17.25 38.25H15.75C15.3 38.25 15 37.95 15 37.5V36C15 35.55 15.3 35.25 15.75 35.25H17.25C17.7 35.25 18 35.55 18 36V37.5ZM24.75 33.75H23.25C21.975 33.75 21 34.725 21 36V37.5C21 38.775 21.975 39.75 23.25 39.75H24.75C26.025 39.75 27 38.775 27 37.5V36C27 34.725 26.025 33.75 24.75 33.75ZM25.5 37.5C25.5 37.95 25.2 38.25 24.75 38.25H23.25C22.8 38.25 22.5 37.95 22.5 37.5V36C22.5 35.55 22.8 35.25 23.25 35.25H24.75C25.2 35.25 25.5 35.55 25.5 36V37.5Z" fill="url(#paint2_linear_921_653)"/>
</g>
<defs>
<linearGradient id="paint0_linear_921_653" x1="17.205" y1="10.9375" x2="38.7467" y2="14.5244" gradientUnits="userSpaceOnUse">
<stop stop-color="#00AA4E"/>
<stop offset="1" stop-color="#0071BB"/>
</linearGradient>
<linearGradient id="paint1_linear_921_653" x1="15.393" y1="18.2625" x2="43.3929" y2="19.3561" gradientUnits="userSpaceOnUse">
<stop stop-color="#00AA4E"/>
<stop offset="1" stop-color="#0071BB"/>
</linearGradient>
<linearGradient id="paint2_linear_921_653" x1="17.658" y1="26.275" x2="38.2576" y2="27.4183" gradientUnits="userSpaceOnUse">
<stop stop-color="#00AA4E"/>
<stop offset="1" stop-color="#0071BB"/>
</linearGradient>
</defs>
</svg>
