<svg width="48" height="48" viewBox="0 0 48 48" fill="none" xmlns="http://www.w3.org/2000/svg">
<g id="3469293081636777161 1">
<path id="Vector" d="M44.818 10.231L38.518 3.231C38.4525 3.15849 38.3727 3.10047 38.2834 3.06069C38.1942 3.0209 38.0976 3.00023 38 3H14.9C13.9717 3 13.0815 3.36875 12.4251 4.02513C11.7688 4.6815 11.4 5.57174 11.4 6.5V17H5.1C4.54356 17.0017 4.01038 17.2234 3.61691 17.6169C3.22345 18.0104 3.00166 18.5436 3 19.1V42.9C3.00166 43.4564 3.22345 43.9896 3.61691 44.3831C4.01038 44.7766 4.54356 44.9983 5.1 45H41.5C42.4282 45 43.3185 44.6312 43.9748 43.9748C44.6312 43.3185 45 42.4283 45 41.5V10.7C45.0015 10.5261 44.9364 10.3583 44.818 10.231ZM38.7 5.527L42.725 10H39.4C39.2143 10 39.0363 9.92622 38.905 9.79497C38.7738 9.66372 38.7 9.48564 38.7 9.3V5.527ZM21.2 42.9C21.2 43.0856 21.1262 43.2637 20.995 43.395C20.8637 43.5262 20.6856 43.6 20.5 43.6H5.1C4.91434 43.6 4.7363 43.5262 4.60502 43.395C4.47375 43.2637 4.4 43.0856 4.4 42.9V19.1C4.4 18.9144 4.47375 18.7363 4.60502 18.605C4.7363 18.4738 4.91434 18.4 5.1 18.4H20.5C20.6856 18.4 20.8637 18.4738 20.995 18.605C21.1262 18.7363 21.2 18.9144 21.2 19.1V42.9ZM43.6 41.5C43.5983 42.0564 43.3765 42.5896 42.9831 42.9831C42.5896 43.3766 42.0564 43.5983 41.5 43.6H22.474C22.5555 43.3755 22.5981 43.1388 22.6 42.9V19.1C22.5983 18.5436 22.3765 18.0104 21.9831 17.6169C21.5896 17.2234 21.0564 17.0017 20.5 17H12.8V6.5C12.8017 5.94356 13.0234 5.41038 13.4169 5.01691C13.8104 4.62345 14.3436 4.40166 14.9 4.4H37.3V9.3C37.3017 9.85643 37.5234 10.3896 37.9169 10.7831C38.3104 11.1766 38.8435 11.3983 39.4 11.4H43.6V41.5Z" fill="url(#paint0_linear_350_4447)"/>
<path id="Vector_2" d="M27 10H16V11H27V10Z" fill="url(#paint1_linear_350_4447)"/>
<path id="Vector_3" d="M17 7H16V8H17V7Z" fill="url(#paint2_linear_350_4447)"/>
<path id="Vector_4" d="M27 7H18V8H27V7Z" fill="url(#paint3_linear_350_4447)"/>
<path id="Vector_5" d="M41 14H16V15H41V14Z" fill="url(#paint4_linear_350_4447)"/>
<path id="Vector_6" d="M41 17H24V18H41V17Z" fill="url(#paint5_linear_350_4447)"/>
<path id="Vector_7" d="M18.6 28H7.4C7.0287 28 6.6726 28.1475 6.41005 28.4101C6.1475 28.6726 6 29.0287 6 29.4V40.6C6 40.9713 6.1475 41.3274 6.41005 41.5899C6.6726 41.8525 7.0287 42 7.4 42H18.6C18.9713 42 19.3274 41.8525 19.5899 41.5899C19.8525 41.3274 20 40.9713 20 40.6V29.4C20 29.0287 19.8525 28.6726 19.5899 28.4101C19.3274 28.1475 18.9713 28 18.6 28ZM18.6 32.2H15.8V29.4H18.6V32.2ZM11.6 36.4V33.6H14.4V36.4H11.6ZM14.4 37.8V40.6H11.6V37.8H14.4ZM10.2 36.4H7.4V33.6H10.2V36.4ZM11.6 32.2V29.4H14.4V32.2H11.6ZM15.8 33.6H18.6V36.4H15.8V33.6ZM10.2 29.4V32.2H7.4V29.4H10.2ZM7.4 37.8H10.2V40.6H7.4V37.8ZM15.8 40.6V37.8H18.6V40.6H15.8Z" fill="url(#paint6_linear_350_4447)"/>
<path id="Vector_8" d="M18.6 20H7.4C7.0287 20 6.6726 20.1475 6.41005 20.4101C6.1475 20.6726 6 21.0287 6 21.4V25.6C6 25.9713 6.1475 26.3274 6.41005 26.5899C6.6726 26.8525 7.0287 27 7.4 27H18.6C18.9713 27 19.3274 26.8525 19.5899 26.5899C19.8525 26.3274 20 25.9713 20 25.6V21.4C20 21.0287 19.8525 20.6726 19.5899 20.4101C19.3274 20.1475 18.9713 20 18.6 20ZM18.6 25.6H7.4V21.4H18.6V25.6Z" fill="url(#paint7_linear_350_4447)"/>
<path id="Vector_9" d="M16 22H15V24H16V22Z" fill="url(#paint8_linear_350_4447)"/>
<path id="Vector_10" d="M13 22H12V24H13V22Z" fill="url(#paint9_linear_350_4447)"/>
<path id="Vector_11" d="M11 22H9V24H11V22Z" fill="url(#paint10_linear_350_4447)"/>
<path id="Vector_12" d="M32.25 26.25H33.75C33.9489 26.25 34.1397 26.3291 34.2803 26.4697C34.4209 26.6103 34.5 26.8011 34.5 27H36C36 26.4033 35.7629 25.831 35.341 25.409C34.919 24.9871 34.3467 24.75 33.75 24.75V24H32.25V24.75C31.6533 24.75 31.081 24.9871 30.659 25.409C30.2371 25.831 30 26.4033 30 27C30 27.5967 30.2371 28.169 30.659 28.591C31.081 29.0129 31.6533 29.25 32.25 29.25H33.75C33.9489 29.25 34.1397 29.3291 34.2803 29.4697C34.4209 29.6103 34.5 29.8011 34.5 30C34.5 30.1989 34.4209 30.3897 34.2803 30.5303C34.1397 30.6709 33.9489 30.75 33.75 30.75H32.25C32.0511 30.75 31.8603 30.6709 31.7197 30.5303C31.5791 30.3897 31.5 30.1989 31.5 30H30C30 30.5967 30.2371 31.169 30.659 31.591C31.081 32.0129 31.6533 32.25 32.25 32.25V33H33.75V32.25C34.3467 32.25 34.919 32.0129 35.341 31.591C35.7629 31.169 36 30.5967 36 30C36 29.4033 35.7629 28.831 35.341 28.409C34.919 27.9871 34.3467 27.75 33.75 27.75H32.25C32.0511 27.75 31.8603 27.6709 31.7197 27.5303C31.5791 27.3897 31.5 27.1989 31.5 27C31.5 26.8011 31.5791 26.6103 31.7197 26.4697C31.8603 26.3291 32.0511 26.25 32.25 26.25Z" fill="url(#paint11_linear_350_4447)"/>
<path id="Vector_13" d="M33 22C31.6155 22 30.2622 22.4106 29.111 23.1797C27.9599 23.9489 27.0627 25.0421 26.5328 26.3212C26.003 27.6003 25.8644 29.0078 26.1345 30.3656C26.4046 31.7235 27.0713 32.9707 28.0502 33.9498C29.0292 34.9287 30.2765 35.5954 31.6344 35.8655C32.9922 36.1356 34.3997 35.997 35.6788 35.4671C36.9579 34.9373 38.0511 34.0401 38.8203 32.889C39.5895 31.7378 40 30.3845 40 29C39.998 27.1441 39.2598 25.3648 37.9475 24.0525C36.6352 22.7402 34.8559 22.002 33 22ZM33 34.6C31.8925 34.6 30.8097 34.2715 29.8888 33.6562C28.9679 33.0409 28.2501 32.1663 27.8263 31.143C27.4024 30.1198 27.2915 28.9938 27.5076 27.9075C27.7237 26.8212 28.257 25.8234 29.0402 25.0402C29.8234 24.257 30.8212 23.7237 31.9075 23.5076C32.9938 23.2915 34.1198 23.4024 35.143 23.8263C36.1663 24.2501 37.0409 24.9679 37.6563 25.8888C38.2716 26.8097 38.6 27.8924 38.6 29C38.5983 30.4847 38.0078 31.9081 36.9579 32.9579C35.9082 34.0078 34.4847 34.5983 33 34.6Z" fill="url(#paint12_linear_350_4447)"/>
</g>
<defs>
<linearGradient id="paint0_linear_350_4447" x1="11.316" y1="18.05" x2="52.5151" y2="20.3367" gradientUnits="userSpaceOnUse">
<stop stop-color="#00AA4E"/>
<stop offset="1" stop-color="#0071BB"/>
</linearGradient>
<linearGradient id="paint1_linear_350_4447" x1="18.178" y1="10.3583" x2="26.0625" y2="15.1721" gradientUnits="userSpaceOnUse">
<stop stop-color="#00AA4E"/>
<stop offset="1" stop-color="#0071BB"/>
</linearGradient>
<linearGradient id="paint2_linear_350_4447" x1="16.198" y1="7.35833" x2="17.1789" y2="7.41278" gradientUnits="userSpaceOnUse">
<stop stop-color="#00AA4E"/>
<stop offset="1" stop-color="#0071BB"/>
</linearGradient>
<linearGradient id="paint3_linear_350_4447" x1="19.782" y1="7.35833" x2="26.8691" y2="10.8986" gradientUnits="userSpaceOnUse">
<stop stop-color="#00AA4E"/>
<stop offset="1" stop-color="#0071BB"/>
</linearGradient>
<linearGradient id="paint4_linear_350_4447" x1="20.95" y1="14.3583" x2="29.3588" y2="26.0262" gradientUnits="userSpaceOnUse">
<stop stop-color="#00AA4E"/>
<stop offset="1" stop-color="#0071BB"/>
</linearGradient>
<linearGradient id="paint5_linear_350_4447" x1="27.366" y1="17.3583" x2="36.215" y2="25.7078" gradientUnits="userSpaceOnUse">
<stop stop-color="#00AA4E"/>
<stop offset="1" stop-color="#0071BB"/>
</linearGradient>
<linearGradient id="paint6_linear_350_4447" x1="8.772" y1="33.0167" x2="22.505" y2="33.7789" gradientUnits="userSpaceOnUse">
<stop stop-color="#00AA4E"/>
<stop offset="1" stop-color="#0071BB"/>
</linearGradient>
<linearGradient id="paint7_linear_350_4447" x1="8.772" y1="22.5083" x2="22.3797" y2="24.0189" gradientUnits="userSpaceOnUse">
<stop stop-color="#00AA4E"/>
<stop offset="1" stop-color="#0071BB"/>
</linearGradient>
<linearGradient id="paint8_linear_350_4447" x1="15.198" y1="22.7167" x2="16.1812" y2="22.744" gradientUnits="userSpaceOnUse">
<stop stop-color="#00AA4E"/>
<stop offset="1" stop-color="#0071BB"/>
</linearGradient>
<linearGradient id="paint9_linear_350_4447" x1="12.198" y1="22.7167" x2="13.1812" y2="22.744" gradientUnits="userSpaceOnUse">
<stop stop-color="#00AA4E"/>
<stop offset="1" stop-color="#0071BB"/>
</linearGradient>
<linearGradient id="paint10_linear_350_4447" x1="9.396" y1="22.7167" x2="11.3579" y2="22.8256" gradientUnits="userSpaceOnUse">
<stop stop-color="#00AA4E"/>
<stop offset="1" stop-color="#0071BB"/>
</linearGradient>
<linearGradient id="paint11_linear_350_4447" x1="31.188" y1="27.225" x2="37.0836" y2="27.4432" gradientUnits="userSpaceOnUse">
<stop stop-color="#00AA4E"/>
<stop offset="1" stop-color="#0071BB"/>
</linearGradient>
<linearGradient id="paint12_linear_350_4447" x1="28.772" y1="27.0167" x2="42.505" y2="27.7789" gradientUnits="userSpaceOnUse">
<stop stop-color="#00AA4E"/>
<stop offset="1" stop-color="#0071BB"/>
</linearGradient>
</defs>
</svg>
