<svg width="84" height="80" viewBox="0 0 84 80" fill="none" xmlns="http://www.w3.org/2000/svg">
<g id="success icon component/Variant8">
<path id="Ellipse 9" d="M63.7088 11.8479C64.8452 10.4984 64.6793 8.47148 63.2435 7.44628C56.796 2.84261 49.1037 0.242648 41.1367 0.0161543C32.1019 -0.240697 23.2464 2.56994 16.0133 7.99002C8.78026 13.4101 3.5961 21.1201 1.30565 29.8636C-0.984801 38.607 -0.246507 47.8685 3.40022 56.1386C7.04694 64.4088 13.3871 71.2001 21.3875 75.4059C29.3879 79.6116 38.5768 80.9838 47.4569 79.2988C56.3369 77.6138 64.3845 72.971 70.2882 66.127C75.4942 60.0919 78.7625 52.6589 79.7118 44.7937C79.9232 43.0421 78.5385 41.5526 76.7757 41.4816V41.4816C75.0129 41.4105 73.5419 42.786 73.3039 44.5341C72.4298 50.9555 69.7132 57.0124 65.4505 61.954C60.4898 67.7048 53.7275 71.606 46.2658 73.0219C38.8041 74.4377 31.0829 73.2847 24.3603 69.7507C17.6378 66.2168 12.3103 60.5102 9.24604 53.5609C6.18178 46.6117 5.56141 38.8295 7.48602 31.4826C9.41063 24.1357 13.7668 17.6571 19.8445 13.1027C25.9223 8.54837 33.3634 6.18666 40.9551 6.40249C47.4785 6.58794 53.7827 8.66711 59.1134 12.3525C60.5647 13.3558 62.5723 13.1973 63.7088 11.8479V11.8479Z" fill="#00AA4E"/>
<path id="Vector" d="M79.9997 14.6284L40.8957 53.9348L23.1211 36.0683" stroke="#00AA4E" stroke-width="8" stroke-linecap="round" stroke-linejoin="round"/>
</g>
</svg>
