<svg width="20" height="14" viewBox="0 0 20 14" fill="none" xmlns="http://www.w3.org/2000/svg">
<path d="M0 2.18562V4.30769H3.12667L0 2.18562ZM2.59111 14H7.22222V10.857L2.59111 14ZM12.7778 10.8575V14H17.4083L12.7778 10.8575ZM0 9.69231V11.8144L3.12778 9.69231H0ZM17.4094 0H12.7778V3.143L17.4094 0ZM20 11.8149V9.69231H16.8717L20 11.8149ZM20 4.30769V2.18562L16.8728 4.30769H20ZM7.22222 0H2.59111L7.22222 3.143V0Z" fill="#00247D"/>
<path d="M14.002 9.71634L19.4451 13.4111C19.711 13.1456 19.902 12.8185 20 12.4609L15.9563 9.71634H14.002ZM7.19798 9.71634H5.99804L0.555415 13.4106C0.847415 13.6985 1.2218 13.9044 1.64159 14L7.19798 10.2286V9.71634ZM12.8026 4.28366H14.0025L19.4451 0.589445C19.1481 0.297317 18.7717 0.092913 18.3595 0L12.8026 3.77136V4.28366ZM5.99804 4.28366L0.555415 0.589445C0.289731 0.855089 0.0985369 1.18217 0 1.53962L4.04372 4.28366H5.99804Z" fill="#CF1B2B"/>
<path d="M20 8.61539H11.6667V14H12.7778V10.8575L17.4083 14H17.7778C18.0729 14 18.3651 13.943 18.6372 13.8321C18.9093 13.7212 19.1558 13.5588 19.3622 13.3544L13.9667 9.69231H15.9039L19.9122 12.4126C19.9639 12.2312 20 12.0432 20 11.8462V11.8149L16.8717 9.69231H20V8.61539ZM0 8.61539V9.69231H3.12778L0 11.8144V11.8462C0 12.4336 0.243889 12.9651 0.637778 13.3538L6.03278 9.69231H7.22222V10.2001L1.71444 13.9375C1.87778 13.9752 2.04667 14 2.22222 14H2.59111L7.22222 10.857V14H8.33333V8.61539H0ZM20 2.15385C20.0003 1.58953 19.7712 1.04782 19.3622 0.646154L13.9672 4.30769H12.7778V3.79992L18.2861 0.0619232C18.1197 0.0223609 17.9491 0.00158203 17.7778 2.03742e-07H17.4094L12.7778 3.143V2.03742e-07H11.6667V5.38462H20V4.30769H16.8728L20 2.18562V2.15385ZM7.22222 2.03742e-07V3.143L2.59111 2.03742e-07H2.22222C1.92701 -0.000124477 1.63476 0.0569765 1.36265 0.167944C1.09055 0.278911 0.844091 0.441503 0.637778 0.646154L6.03278 4.30769H4.09556L0.0872222 1.58792C0.0321001 1.77192 0.00276301 1.96227 0 2.15385L0 2.18562L3.12667 4.30769H0V5.38462H8.33333V2.03742e-07H7.22222Z" fill="#EEEEEE"/>
<path d="M11.6667 5.38462V0H8.33333V5.38462H0V8.61539H8.33333V14H11.6667V8.61539H20V5.38462H11.6667Z" fill="#CF1B2B"/>
</svg>
