<svg width="24" height="25" viewBox="0 0 24 25" fill="none" xmlns="http://www.w3.org/2000/svg">
<rect x="2.25" y="5.75" width="19.5" height="13.5" rx="1.75" fill="white" stroke="#F5F5F5" stroke-width="0.5"/>
<mask id="mask0_1152_8078" style="mask-type:luminance" maskUnits="userSpaceOnUse" x="2" y="5" width="20" height="15">
<rect x="2.25" y="5.75" width="19.5" height="13.5" rx="1.75" fill="white" stroke="white" stroke-width="0.5"/>
</mask>
<g mask="url(#mask0_1152_8078)">
<path fill-rule="evenodd" clip-rule="evenodd" d="M2 10.1667H22V5.5H2V10.1667Z" fill="#04AAC8"/>
<path fill-rule="evenodd" clip-rule="evenodd" d="M2 19.5H22V14.8333H2V19.5Z" fill="#23C840"/>
<path fill-rule="evenodd" clip-rule="evenodd" d="M5.33333 9.23333C5.6271 9.23333 5.90016 9.14643 6.1272 8.99743C6.1009 8.99914 6.07436 9 6.04761 9C5.39013 9 4.85714 8.47767 4.85714 7.83333C4.85714 7.189 5.39013 6.66667 6.04761 6.66667C6.07436 6.66667 6.1009 6.66753 6.1272 6.66923C5.90016 6.52023 5.6271 6.43333 5.33333 6.43333C4.54435 6.43333 3.90475 7.06014 3.90475 7.83333C3.90475 8.60653 4.54435 9.23333 5.33333 9.23333ZM7.71428 8.76667C7.71428 9.0244 7.50108 9.23333 7.23809 9.23333C6.9751 9.23333 6.7619 9.0244 6.7619 8.76667C6.7619 8.50893 6.9751 8.3 7.23809 8.3C7.50108 8.3 7.71428 8.50893 7.71428 8.76667ZM9.14285 7.36667C9.40584 7.36667 9.61904 7.15773 9.61904 6.9C9.61904 6.64227 9.40584 6.43333 9.14285 6.43333C8.87986 6.43333 8.66666 6.64227 8.66666 6.9C8.66666 7.15773 8.87986 7.36667 9.14285 7.36667ZM11.5238 6.9C11.5238 7.15773 11.3106 7.36667 11.0476 7.36667C10.7846 7.36667 10.5714 7.15773 10.5714 6.9C10.5714 6.64227 10.7846 6.43333 11.0476 6.43333C11.3106 6.43333 11.5238 6.64227 11.5238 6.9ZM11.0476 9.23333C11.3106 9.23333 11.5238 9.0244 11.5238 8.76667C11.5238 8.50893 11.3106 8.3 11.0476 8.3C10.7846 8.3 10.5714 8.50893 10.5714 8.76667C10.5714 9.0244 10.7846 9.23333 11.0476 9.23333ZM9.61904 8.76667C9.61904 9.0244 9.40584 9.23333 9.14285 9.23333C8.87986 9.23333 8.66666 9.0244 8.66666 8.76667C8.66666 8.50893 8.87986 8.3 9.14285 8.3C9.40584 8.3 9.61904 8.50893 9.61904 8.76667Z" fill="white"/>
</g>
</svg>
