<svg width="45" height="45" viewBox="0 0 45 45" fill="none" xmlns="http://www.w3.org/2000/svg">
<rect width="45" height="45" rx="6" fill="white"/>
<path d="M34.9913 10.1913C33.494 8.63956 31.2479 8.10586 29.1294 8.79802L22.5 10.9644L15.8705 8.79802C13.752 8.1057 11.506 8.63964 10.0087 10.1913L5.62809 14.7304C3.35989 17.0811 3.4759 21.0303 5.88709 23.5336C8.53426 26.282 11.3893 29.2455 13.7695 31.7116C13.6593 32.1414 13.6592 32.5936 13.7692 33.0236C13.8791 33.4535 14.0953 33.8463 14.3964 34.1632L14.4283 34.1964C14.6559 34.4307 14.926 34.616 15.223 34.7418C15.5201 34.8676 15.8381 34.9312 16.159 34.9292C16.3749 34.9289 16.59 34.9009 16.7992 34.8457L17.0527 35.1071C17.428 35.4962 17.9048 35.763 18.4246 35.8748C18.8714 36.2822 19.4473 36.5047 20.0424 36.4999C20.0726 36.4999 20.1029 36.4994 20.1333 36.4983C20.8191 36.4711 21.4691 36.1743 21.9513 35.6682L22.5 35.099L23.0493 35.6682C23.5315 36.1743 24.1815 36.4711 24.8673 36.4983C24.8977 36.4994 24.9279 36.4999 24.9581 36.4999C25.5517 36.5043 26.1263 36.2828 26.5727 35.8772C27.0932 35.7637 27.5707 35.4961 27.9474 35.1071L28.2021 34.8444C28.6174 34.9585 29.0543 34.9588 29.4697 34.8452C29.8852 34.7316 30.265 34.508 30.5719 34.1964L30.6033 34.1637C30.9035 33.8463 31.119 33.4535 31.2288 33.0239C31.3386 32.5942 31.3388 32.1424 31.2295 31.7127C33.5879 29.2695 36.4067 26.3435 39.1129 23.5339C41.5241 21.0307 41.6403 17.0813 39.3716 14.7306L34.9913 10.1913ZM15.2721 33.3226L15.2401 33.2896C15.1698 33.2165 15.1086 33.1346 15.0579 33.0458L15.5082 33.5119C15.4222 33.4593 15.3428 33.3956 15.2721 33.3225V33.3226ZM21.1071 34.7944C21.0323 34.8716 20.9502 34.941 20.8621 35.0016C21.1127 34.6907 21.2859 34.321 21.3667 33.9247L21.6565 34.2251L21.1071 34.7944ZM29.7596 33.2898L29.7281 33.3224C29.217 33.8522 28.3421 33.8075 27.7779 33.2229L18.618 23.7306C18.5628 23.6722 18.497 23.6257 18.4244 23.5937C18.3518 23.5618 18.2737 23.5452 18.1948 23.5447C18.116 23.5442 18.0378 23.56 17.9648 23.5911C17.8918 23.6222 17.8255 23.6679 17.7698 23.7257C17.714 23.7835 17.6698 23.8522 17.6398 23.9278C17.6098 24.0034 17.5946 24.0845 17.5951 24.1662C17.5955 24.248 17.6116 24.3288 17.6424 24.4041C17.6732 24.4793 17.7181 24.5475 17.7745 24.6047L25.746 32.8653L25.7501 32.8696C26.0244 33.1481 26.1861 33.5243 26.2024 33.9219C26.212 34.1006 26.1851 34.2794 26.1234 34.4466C26.0617 34.6139 25.9667 34.7657 25.8446 34.8923C25.7224 35.0189 25.5759 35.1173 25.4145 35.1812C25.2532 35.2451 25.0806 35.2729 24.9081 35.263C24.5245 35.2462 24.1614 35.0786 23.8927 34.7944L22.9216 33.7881L15.9171 26.5297C15.8053 26.4137 15.6535 26.3486 15.4953 26.3486C15.3372 26.3486 15.1854 26.4137 15.0736 26.5297C14.9617 26.6456 14.8989 26.8028 14.8989 26.9667C14.8989 27.1306 14.9617 27.2878 15.0736 27.4038L19.7719 32.2725L19.7751 32.2758C20.0494 32.5543 20.2111 32.9305 20.2274 33.3281C20.236 33.5063 20.2088 33.6844 20.1474 33.8511C20.0861 34.0179 19.992 34.1696 19.8712 34.2967L19.8413 34.3276C19.3314 34.8559 18.4579 34.8126 17.8941 34.2311C17.7297 34.0615 17.5574 33.8838 17.3774 33.6981L17.3743 33.6949C16.6714 32.969 15.8567 32.1261 14.9676 31.2052C14.9179 31.1198 14.8488 31.0482 14.7663 30.9966C12.3563 28.5001 9.43563 25.4684 6.73128 22.6604C4.78434 20.639 4.66796 17.4737 6.47183 15.6044L10.8521 11.0655C12.0337 9.84117 13.819 9.42405 15.5118 9.97715L20.5168 11.6125L17.721 12.5262C17.591 12.5686 17.4789 12.656 17.4035 12.7737C17.3281 12.8913 17.2938 13.0322 17.3064 13.1729L17.3747 13.9315C17.3916 14.4025 17.5016 14.865 17.6977 15.2903C17.8938 15.7157 18.1719 16.0948 18.5149 16.4045C18.8665 16.7191 19.2768 16.9554 19.7203 17.0985C20.1639 17.2416 20.6311 17.2885 21.0929 17.2363L21.4903 17.1959L22.0785 17.8063L30.2672 26.304C30.8306 26.8885 30.8733 27.7951 30.3624 28.3241L30.3593 28.3274C29.8603 28.8411 29.018 28.8103 28.4543 28.2672C27.525 27.3041 26.5117 26.2546 25.5493 25.258C23.3915 23.0228 21.5279 21.0925 21.3479 20.9046C21.2362 20.7892 21.085 20.7243 20.9274 20.7241C20.7697 20.7239 20.6183 20.7885 20.5064 20.9036C20.3946 21.0187 20.3312 21.1751 20.3303 21.3385C20.3293 21.5019 20.3908 21.659 20.5014 21.7755C20.6831 21.9652 22.5473 23.8962 24.7063 26.1322L27.5442 29.0719C27.552 29.081 27.5602 29.09 27.5687 29.0988C27.587 29.1179 27.606 29.1366 27.6244 29.1551C28.3849 29.9431 29.0895 30.6729 29.6645 31.2687C30.2281 31.8533 30.271 32.7598 29.7596 33.2897V33.2898ZM38.2684 22.6604C35.6647 25.3637 32.9559 28.1754 30.6543 30.5603C30.6077 30.5039 30.5592 30.4484 30.5076 30.3949C30.3488 30.2303 30.1801 30.0554 30.003 29.872C30.4585 29.7733 30.8763 29.5392 31.2055 29.1985L31.21 29.1939C32.1813 28.1825 32.1375 26.4956 31.1111 25.4305L23.3425 17.3691L23.8793 16.8117C23.9661 16.7216 24.024 16.6059 24.0449 16.4804C24.0659 16.3549 24.0489 16.2258 23.9964 16.1106C23.9438 15.9955 23.8582 15.9 23.7513 15.8372C23.6444 15.7744 23.5214 15.7474 23.399 15.7598L20.976 16.0061C20.6757 16.0412 20.3716 16.0118 20.0827 15.9198C19.7938 15.8279 19.5263 15.6752 19.2969 15.4714C19.0749 15.2698 18.8953 15.0229 18.7695 14.7462C18.6436 14.4695 18.5741 14.1689 18.5652 13.8631C18.5652 13.8527 18.5641 13.8422 18.5632 13.8318L18.5383 13.555L22.6681 12.2054L22.6702 12.2048L29.4878 9.97699C31.1802 9.42374 32.9658 9.84086 34.1475 11.0653L38.5277 15.6044C40.3319 17.4737 40.2155 20.639 38.2684 22.6604Z" fill="url(#paint0_linear_262_3532)"/>
<defs>
<linearGradient id="paint0_linear_262_3532" x1="11.326" y1="18.5333" x2="47.5375" y2="21.1892" gradientUnits="userSpaceOnUse">
<stop stop-color="#00AA4E"/>
<stop offset="1" stop-color="#0071BB"/>
</linearGradient>
</defs>
</svg>
