<svg width="56" height="56" viewBox="0 0 56 56" fill="none" xmlns="http://www.w3.org/2000/svg">
<g id="Icon">
<g id="vuesax/bold/money">
<g id="money">
<path id="Vector" d="M39.6667 8.16675H16.3334C9.33335 8.16675 4.66669 11.6667 4.66669 19.8334V36.1668C4.66669 44.3334 9.33335 47.8334 16.3334 47.8334H39.6667C46.6667 47.8334 51.3334 44.3334 51.3334 36.1668V19.8334C51.3334 11.6667 46.6667 8.16675 39.6667 8.16675ZM14.5834 33.8334C14.5834 34.7901 13.79 35.5834 12.8334 35.5834C11.8767 35.5834 11.0834 34.7901 11.0834 33.8334V22.1667C11.0834 21.2101 11.8767 20.4167 12.8334 20.4167C13.79 20.4167 14.5834 21.2101 14.5834 22.1667V33.8334ZM28 35.0001C24.1267 35.0001 21 31.8734 21 28.0001C21 24.1268 24.1267 21.0001 28 21.0001C31.8734 21.0001 35 24.1268 35 28.0001C35 31.8734 31.8734 35.0001 28 35.0001ZM44.9167 33.8334C44.9167 34.7901 44.1234 35.5834 43.1667 35.5834C42.21 35.5834 41.4167 34.7901 41.4167 33.8334V22.1667C41.4167 21.2101 42.21 20.4167 43.1667 20.4167C44.1234 20.4167 44.9167 21.2101 44.9167 22.1667V33.8334Z" fill="white"/>
</g>
</g>
</g>
</svg>
