<svg width="45" height="45" viewBox="0 0 45 45" fill="none" xmlns="http://www.w3.org/2000/svg">
<g id="Home">
<path id="Vector" d="M39 0H6C2.68629 0 0 2.68629 0 6V39C0 42.3137 2.68629 45 6 45H39C42.3137 45 45 42.3137 45 39V6C45 2.68629 42.3137 0 39 0Z" fill="white"/>
<g id="Group">
<path id="Vector_2" d="M39.8438 21.3568V33.9381C39.8438 37.2006 37.3312 39.8443 34.2188 39.8443H10.7812C7.66875 39.8443 5.15625 37.2006 5.15625 33.9381V21.3568C5.15625 19.5943 5.8875 17.9443 7.18125 16.8193L18.9 6.52559C20.9812 4.68809 24.0188 4.68809 26.1 6.52559L37.8187 16.8193C39.1125 17.9443 39.8438 19.5943 39.8438 21.3568Z" fill="white" stroke="url(#paint0_linear_262_3602)" stroke-width="1.5" stroke-linecap="round" stroke-linejoin="round"/>
<path id="Vector_3" d="Mnan nanL27.7125 39.8447H22.5C19.6212 39.8447 17.2875 37.511 17.2875 34.6322V28.6885C17.2875 27.6572 18.1312 26.8135 19.1625 26.8135H25.8375C26.8687 26.8135 27.7125 27.6572 27.7125 28.6885V39.8447Lnan nanLnan nanZ" fill="white" stroke="url(#paint1_linear_262_3602)" stroke-width="1.5" stroke-linecap="round" stroke-linejoin="round"/>
</g>
</g>
<defs>
<linearGradient id="paint0_linear_262_3602" x1="12.0244" y1="17.5805" x2="46.0505" y2="19.4686" gradientUnits="userSpaceOnUse">
<stop stop-color="#00AA4E"/>
<stop offset="1" stop-color="#0071BB"/>
</linearGradient>
<linearGradient id="paint1_linear_262_3602" x1="19.3516" y1="31.483" x2="29.5891" y2="31.9376" gradientUnits="userSpaceOnUse">
<stop stop-color="#00AA4E"/>
<stop offset="1" stop-color="#0071BB"/>
</linearGradient>
</defs>
</svg>
