<svg width="56" height="56" viewBox="0 0 56 56" fill="none" xmlns="http://www.w3.org/2000/svg">
<g id="earth 2">
<path id="Vector" d="M45.3239 10.6903C43.053 8.39691 40.3513 6.5748 37.374 5.32868C34.3967 4.08255 31.2026 3.43697 27.975 3.42903C24.7475 3.42109 21.5502 4.05093 18.5669 5.28239C15.5835 6.51384 12.8728 8.32263 10.5906 10.6048C8.30841 12.8871 6.49962 15.5977 5.26816 18.5811C4.03671 21.5644 3.40686 24.7617 3.41481 27.9893C3.42275 31.2168 4.06833 34.4109 5.31445 37.3882C6.56058 40.3655 8.38269 43.0672 10.6761 45.3382C12.9471 47.6316 15.6488 49.4537 18.626 50.6998C21.6033 51.9459 24.7975 52.5915 28.025 52.5994C31.2525 52.6074 34.4498 51.9775 37.4332 50.7461C40.4165 49.5146 43.1272 47.7059 45.4094 45.4236C47.6916 43.1414 49.5004 40.4308 50.7319 37.4474C51.9633 34.464 52.5932 31.2667 52.5852 28.0392C52.5773 24.8117 51.9317 21.6175 50.6856 18.6403C49.4395 15.663 47.6173 12.9613 45.3239 10.6903ZM7.00001 28.0142C6.99923 26.1556 7.24566 24.3052 7.73282 22.5116C8.53564 24.2397 9.70157 25.7327 10.4945 27.5056C11.5194 29.785 14.2713 29.1528 15.4864 31.15C16.5649 32.923 15.4131 35.1652 16.2203 37.0202C16.8066 38.3666 18.1891 38.6608 19.1428 39.6452C20.1174 40.6383 20.0966 41.9989 20.2453 43.2939C20.4132 44.8155 20.6854 46.3237 21.0602 47.8078C21.0602 47.8188 21.0602 47.8308 21.0689 47.8417C12.8844 44.9674 7.00001 37.1656 7.00001 28.0142ZM28 49.0142C26.8272 49.0139 25.6565 48.9158 24.5 48.7211C24.512 48.4247 24.5175 48.148 24.547 47.9555C24.8128 46.2164 25.6835 44.5157 26.8581 43.2141C28.0186 41.93 29.6089 41.0616 30.5889 39.6047C31.5492 38.1828 31.8369 36.2688 31.441 34.6074C30.858 32.153 27.5231 31.3338 25.725 30.0027C24.6914 29.2371 23.7716 28.0536 22.4142 27.9574C21.7886 27.9136 21.2647 28.0481 20.6445 27.8885C20.0758 27.7408 19.6295 27.4346 19.0236 27.5144C17.8916 27.6631 17.1774 28.8728 15.9611 28.7088C14.8072 28.5546 13.6183 27.2038 13.3558 26.1045C13.0189 24.6914 14.1367 24.2331 15.3344 24.1074C15.8342 24.0549 16.3953 23.998 16.8755 24.1817C17.5077 24.4158 17.8063 25.0349 18.3739 25.3477C19.4381 25.9317 19.6536 24.9988 19.4906 24.0538C19.2467 22.6385 18.9624 22.062 20.2245 21.0875C21.0995 20.416 21.8477 19.9303 21.7077 18.7239C21.6245 18.0152 21.2363 17.6947 21.5983 16.9892C21.8728 16.4522 22.6264 15.9677 23.1175 15.6472C24.3852 14.8203 28.548 14.8816 26.8472 12.5672C26.3474 11.888 25.4253 10.6739 24.5503 10.5077C23.4566 10.301 22.971 11.5216 22.2086 12.0597C21.4211 12.6164 19.8877 13.2486 19.0991 12.3878C18.0381 11.2295 19.8024 10.85 20.1928 10.0406C20.3733 9.6633 20.1928 9.13939 19.8888 8.64611C20.2832 8.47986 20.6843 8.32564 21.0919 8.18345C21.3473 8.37212 21.6504 8.48576 21.9669 8.51158C22.6986 8.5597 23.3888 8.16376 24.0275 8.66251C24.7363 9.20939 25.247 9.90064 26.1877 10.0713C27.0977 10.2364 28.0613 9.70595 28.2866 8.77408C28.4233 8.20751 28.2866 7.60923 28.1553 7.02408C32.246 7.04761 36.2395 8.27268 39.6397 10.547C39.421 10.4639 39.1595 10.4738 38.8369 10.6236C38.173 10.932 37.2324 11.7174 37.1547 12.4961C37.0661 13.3799 38.3699 13.5045 38.9889 13.5045C39.9186 13.5045 40.8603 13.0889 40.5606 12.0149C40.4305 11.5489 40.2533 11.0644 39.9678 10.7713C40.6541 11.2474 41.3115 11.7639 41.9366 12.3178C41.9267 12.3277 41.9169 12.3364 41.907 12.3474C41.2771 13.0036 40.5453 13.5231 40.1144 14.3216C39.8103 14.8838 39.468 15.1506 38.8522 15.2961C38.5131 15.376 38.126 15.4055 37.8416 15.633C37.0497 16.2564 37.5003 17.7549 38.2506 18.2044C39.1989 18.772 40.6055 18.5052 41.3208 17.6947C41.8797 17.0603 42.2089 15.9589 43.2141 15.96C43.6566 15.9591 44.0817 16.1324 44.3975 16.4424C44.8131 16.8733 44.7311 17.2758 44.8197 17.8139C44.9761 18.7699 45.8194 18.2514 46.3324 17.7691C46.7063 18.4345 47.0437 19.1199 47.343 19.822C46.7786 20.6347 46.3302 21.5206 44.9728 20.5735C44.1602 20.0058 43.6603 19.1822 42.6399 18.9263C41.7485 18.7075 40.8352 18.935 39.9547 19.087C38.9539 19.261 37.7672 19.3375 37.0081 20.0955C36.2742 20.8261 35.886 21.8039 35.105 22.5378C33.5945 23.9597 32.9569 25.5117 33.9347 27.5221C34.8753 29.4547 36.843 30.5036 38.966 30.3658C41.0517 30.2269 43.2185 29.0172 43.1583 32.048C43.1364 33.121 43.3606 33.8636 43.6899 34.86C43.995 35.7788 43.9742 36.6691 44.0442 37.6174C44.1108 38.7278 44.2844 39.8292 44.5627 40.9063C42.6022 43.4304 40.0908 45.4731 37.2203 46.8783C34.3498 48.2835 31.196 49.0141 28 49.0142Z" fill="white"/>
</g>
</svg>
