<svg width="220" height="33" viewBox="0 0 220 33" fill="none" xmlns="http://www.w3.org/2000/svg">
<g clip-path="url(#clip0_28_742)">
<path d="M20.1836 8.94939V32.4972H0.681305L20.1836 8.94939ZM20.1836 0.501892C20.1836 5.88333 15.8243 10.2425 10.4429 10.2425C5.06144 10.2425 0.681305 5.88333 0.681305 0.501892H20.1836ZM23.396 32.4981C23.396 27.1166 27.7552 22.7574 33.1367 22.7574C38.5181 22.7574 42.8773 27.1166 42.8773 32.4981H23.396ZM23.396 24.0506V0.501892H42.8977L23.396 24.0506Z" fill="#0A112F"/>
</g>
<g clip-path="url(#clip1_28_742)">
<path d="M162.01 28.1383C164.231 28.1918 166.371 27.3624 167.976 25.8107L170.919 28.9945C168.966 31.0011 166.264 32.4993 162.064 32.4993C154.84 32.4993 150.184 27.7102 150.184 21.2356C150.184 14.8145 155.081 9.97185 161.395 9.97185C168.565 9.97185 172.605 15.4298 172.257 22.9747H155.348C155.937 26.1317 158.157 28.1383 162.01 28.1383ZM167.147 19.3895C166.692 16.4732 164.953 14.3061 161.448 14.3061C158.184 14.3061 155.937 16.1522 155.348 19.3895H167.147ZM50.8977 27.8975L63.9272 14.6539H51.192V10.5069H69.947V14.7609L56.9442 27.9778H70.1343V32.1248H50.8977V27.8975ZM84.7424 28.1383C86.963 28.1918 89.1034 27.3624 90.7087 25.8107L93.6517 28.9945C91.6986 31.0011 88.9964 32.4993 84.7959 32.4993C77.5989 32.4993 72.9168 27.7102 72.9168 21.2356C72.9168 14.8145 77.8129 9.97185 84.127 9.97185C91.2973 9.97185 95.3373 15.4298 94.9895 22.9747H78.0805C78.6958 26.1317 80.8897 28.1383 84.7424 28.1383ZM89.9061 19.3895C89.4512 16.4732 87.7122 14.3061 84.2073 14.3061C80.9432 14.3061 78.6958 16.1522 78.1072 19.3895H89.9061ZM123.135 21.2623C123.135 14.3329 128.299 10.0254 133.998 10.0254C136.861 10.0254 139.59 11.2828 141.195 13.2627V0.500671H145.797V32.0713H141.195V29.0747C139.536 31.1884 136.807 32.4993 133.944 32.4993C128.433 32.4993 123.135 28.1383 123.135 21.2623ZM141.462 21.2088C141.462 17.3562 138.546 14.1991 134.613 14.1991C130.761 14.1991 127.764 17.2759 127.764 21.2088C127.764 25.1418 130.761 28.2453 134.613 28.2453C138.546 28.2721 141.462 25.115 141.462 21.2088ZM175.254 27.4694L179.427 25.3023C180.551 27.3089 182.691 28.5129 184.992 28.4594C187.588 28.4594 188.952 27.1216 188.952 25.5966C188.952 23.8576 186.437 23.483 183.708 22.9211C180.016 22.1453 176.19 20.9413 176.19 16.4732C176.19 13.0486 179.454 9.89158 184.564 9.94509C188.604 9.94509 191.601 11.5504 193.286 14.1456L189.407 16.286C188.417 14.7609 186.705 13.8245 184.538 13.8245C182.049 13.8245 180.792 15.0285 180.792 16.4197C180.792 17.9715 182.798 18.3996 185.929 19.0952C189.487 19.8711 193.527 21.0483 193.527 25.5431C193.527 28.5396 190.932 32.5528 184.752 32.4993C180.257 32.4993 177.073 30.68 175.254 27.4694V27.4694ZM206.022 22.4663L202.383 26.4528V32.0713H197.781V0.500671H202.383V21.1553L212.148 10.4534H217.74L209.286 19.7106L217.981 32.0713H212.764L206.022 22.4663ZM109.223 9.9986C103.738 9.9986 99.1632 13.557 99.1632 19.4163V32.0713H103.872V20.0316C103.872 16.4732 105.905 14.3596 109.384 14.3596C112.862 14.3596 114.601 16.4732 114.601 20.0316V32.0713H119.283V19.443C119.283 13.557 114.708 9.9986 109.223 9.9986Z" fill="#0A112F"/>
<path d="M216.456 7.64418C217.098 7.00207 218.168 7.00207 218.81 7.64418C219.453 8.2863 219.453 9.35648 218.81 9.9986C218.168 10.6407 217.098 10.6407 216.456 9.9986C215.787 9.35648 215.787 8.31305 216.456 7.64418ZM218.516 9.73105C218.998 9.22271 218.971 8.42007 218.489 7.93848C217.981 7.4569 217.178 7.48365 216.697 7.96524C216.215 8.47358 216.215 9.24946 216.724 9.73105C217.232 10.2394 218.035 10.2126 218.516 9.73105ZM217.767 7.7512L218.275 8.25954C218.596 8.5806 218.596 8.95516 218.382 9.1692C218.222 9.35648 217.954 9.40999 217.74 9.30297L217.58 9.94509L217.232 9.59728L217.473 8.71437L217.606 8.84814C217.687 8.95516 217.874 8.98192 217.981 8.90165L218.008 8.8749C218.115 8.76788 218.088 8.5806 217.981 8.50033L217.954 8.47358L217.767 8.2863L216.831 9.22271L216.536 8.92841L217.767 7.7512Z" fill="#0A112F"/>
</g>
<defs>
<clipPath id="clip0_28_742">
<rect width="42.2164" height="32" fill="white" transform="translate(0.681305 0.5)"/>
</clipPath>
<clipPath id="clip1_28_742">
<rect width="168.421" height="32" fill="white" transform="translate(50.8977 0.5)"/>
</clipPath>
</defs>
</svg>
