<svg width="136" height="41" viewBox="0 0 136 41" fill="none" xmlns="http://www.w3.org/2000/svg">
<g id="mollie-1" clip-path="url(#clip0_28_765)">
<path id="Vector" d="M57.5694 13.5626C50.1337 13.5626 44.1007 19.6118 44.1007 27.0313C44.1007 34.4507 50.15 40.5 57.5694 40.5C64.9888 40.5 71.038 34.4507 71.038 27.0313C71.038 19.6118 65.005 13.5626 57.5694 13.5626V13.5626ZM57.5694 34.1258C53.6647 34.1258 50.4857 30.9468 50.4857 27.0421C50.4857 23.1374 53.6647 19.9584 57.5694 19.9584C61.474 19.9584 64.653 23.1374 64.653 27.0421C64.653 30.9468 61.474 34.1258 57.5694 34.1258Z" fill="#0A112F"/>
<path id="Vector_2" d="M102.373 8.89968C104.691 8.89968 106.576 7.02044 106.576 4.69713C106.576 2.37382 104.691 0.5 102.373 0.5C100.055 0.5 98.1706 2.37923 98.1706 4.70255C98.1706 7.02586 100.055 8.89968 102.373 8.89968Z" fill="#0A112F"/>
<path id="Vector_3" d="M30.0688 13.5734C29.7168 13.5463 29.381 13.53 29.0344 13.53C25.785 13.53 22.7035 14.8623 20.4939 17.2127C18.2843 14.8731 15.2136 13.53 11.9967 13.53C5.55212 13.5354 0.304352 18.767 0.304352 25.2116V39.953H6.60275V25.3903C6.60275 22.715 8.80151 20.2509 11.3902 19.9855C11.5743 19.9692 11.753 19.9584 11.9209 19.9584C14.8345 19.9584 17.212 22.3359 17.2283 25.2495V39.9476H23.6675V25.3632C23.6675 22.7041 25.85 20.24 28.4549 19.9747C28.639 19.9584 28.8178 19.9476 28.9856 19.9476C31.8993 19.9476 34.293 22.3142 34.3038 25.2116V39.953H40.743V25.3903C40.743 22.4388 39.6491 19.5901 37.6778 17.3968C35.7119 15.1872 33.0095 13.8279 30.0688 13.5734Z" fill="#0A112F"/>
<path id="Vector_4" d="M80.9488 1.12823H74.5096V39.9801H80.9488V1.12823ZM93.2748 1.12823H86.8356V39.9801H93.2748V1.12823ZM105.595 14.207H99.1562V39.9693H105.595V14.207Z" fill="#0A112F"/>
<path id="Vector_5" d="M135.696 26.4301C135.696 23.0129 134.363 19.796 131.959 17.3427C129.538 14.8948 126.343 13.5355 122.942 13.5355H122.774C119.248 13.5788 115.912 14.976 113.421 17.4835C110.93 19.9909 109.527 23.3053 109.489 26.8472C109.446 30.4594 110.832 33.8767 113.394 36.4654C115.956 39.0541 119.346 40.4838 122.958 40.4838H122.974C127.708 40.4838 132.143 37.9493 134.569 33.8767L134.878 33.3568L129.56 30.741L129.294 31.1743C127.951 33.373 125.644 34.6728 123.083 34.6728C119.806 34.6728 116.979 32.4903 116.107 29.3817H135.696V26.4301ZM122.687 19.3844C125.628 19.3844 128.26 21.3178 129.186 24.0581H116.205C117.115 21.3178 119.747 19.3844 122.687 19.3844Z" fill="#0A112F"/>
</g>
<defs>
<clipPath id="clip0_28_765">
<rect width="135.391" height="40" fill="white" transform="translate(0.304352 0.5)"/>
</clipPath>
</defs>
</svg>
