<svg width="182" height="33" viewBox="0 0 182 33" fill="none" xmlns="http://www.w3.org/2000/svg">
<g id="buzzfeed" clip-path="url(#clip0_28_729)">
<g id="Group">
<path id="Vector" d="M0.600006 0.528545C5.68987 0.535168 10.7818 0.458863 15.8692 0.575335C19.7908 0.665172 22.8634 3.32574 23.5249 6.95983C24.2735 11.0736 22.1365 14.5862 18.8398 15.5288C18.756 15.5527 18.6878 15.6303 18.5753 15.7087C21.7177 16.6073 23.5933 18.6847 24.1215 21.7972C24.9924 26.9326 22.1566 31.1524 16.7987 31.7494C15.6104 31.8816 14.4039 31.8783 13.2055 31.8845C9.00379 31.9068 4.80183 31.9061 0.60015 31.9141L0.600006 0.528545ZM7.36665 25.9221C7.454 25.9521 7.54121 26.0081 7.62812 26.0081C9.73718 26.0115 11.85 26.0862 13.9544 25.9866C16.1321 25.8834 17.427 24.5466 17.4847 22.5767C17.5428 20.5974 16.3467 19.1698 14.214 18.9141C12.8659 18.7524 11.4889 18.8266 10.1248 18.8074C9.22087 18.7949 8.31653 18.8051 7.36665 18.8051V25.9221V25.9221ZM7.32053 12.9651C9.2866 12.9651 11.1534 12.9684 13.0201 12.9622C13.3793 12.9609 13.7467 12.964 14.0961 12.8937C15.4143 12.6294 16.407 11.9543 16.7522 10.582C17.3026 8.39406 15.9065 6.50388 13.6401 6.39172C12.5862 6.33975 11.5281 6.37733 10.472 6.37632C9.44774 6.37502 8.4232 6.37603 7.36709 6.37603C7.34604 6.60264 7.32226 6.74085 7.32211 6.87906C7.31966 8.86657 7.32053 10.8541 7.32053 12.9651ZM121.966 32.4899C121.17 32.3422 120.366 32.2289 119.58 32.0406C113.426 30.5673 110.29 25.2767 110.828 19.4308C111.278 14.536 113.749 10.9574 118.454 9.30078C125.024 6.98776 132.642 10.1106 133.766 18.8414C133.914 19.9949 133.907 21.1684 133.978 22.4362H117.013C117.406 24.5871 118.492 26.096 120.385 26.8981C123.463 28.2016 126.345 27.5519 129.063 25.8046C129.224 25.7014 129.372 25.5787 129.528 25.4677C129.543 25.4568 129.574 25.4663 129.682 25.4663C130.514 26.6888 131.373 27.9512 132.337 29.3699C131.462 29.9151 130.655 30.5061 129.773 30.9487C128.151 31.7628 126.407 32.1945 124.594 32.3452C124.388 32.3623 124.187 32.4401 123.983 32.4897L121.966 32.4899V32.4899ZM128.122 18.3048C128.24 15.486 125.551 13.3334 122.147 13.4676C119.315 13.5791 116.798 15.9744 117.1 18.3048H128.122ZM146.325 32.4899C145.346 32.2931 144.351 32.154 143.391 31.8894C138.805 30.6256 135.641 26.7517 135.224 22.0169C134.831 17.5508 136.128 13.7659 139.717 10.9484C145.156 6.67894 155.846 7.64743 157.969 17.7491C158.121 18.4728 158.211 19.2159 158.257 19.9544C158.305 20.7386 158.268 21.5286 158.268 22.4357H141.413C141.56 23.6985 142.051 24.7138 142.865 25.5536C144.73 27.4753 147.056 27.8369 149.569 27.3964C151.171 27.1155 152.65 26.5078 153.981 25.369L156.694 29.3417C155.988 29.8138 155.348 30.3131 154.645 30.6972C152.897 31.652 151.006 32.1559 149.026 32.3409C148.796 32.3623 148.571 32.4388 148.344 32.4896C147.671 32.4899 146.998 32.4899 146.325 32.4899V32.4899ZM141.453 18.3008H152.487C152.628 15.5685 150.003 13.3983 146.704 13.4627C143.777 13.5195 141.243 15.832 141.453 18.3008V18.3008ZM34.7612 32.4899C34.0402 32.3425 33.3144 32.2148 32.5989 32.0443C28.1669 30.9893 25.5489 27.6757 25.545 23.1207C25.5415 18.7547 25.5443 14.3885 25.5443 10.0225V9.24003H31.535V10.0738C31.535 14.2001 31.5471 18.3263 31.5295 22.4524C31.5213 24.324 32.0946 25.909 33.8701 26.7235C35.7945 27.6061 37.7652 27.5739 39.5455 26.3074C40.8495 25.3801 41.218 23.9605 41.2208 22.4353C41.2287 18.333 41.2237 14.2307 41.2237 10.1286V9.22649H47.1493L47.1496 10.0352C47.1496 14.3534 47.1516 18.6715 47.1488 22.9897C47.1458 28.2004 43.8988 31.7823 38.695 32.3283C38.4382 32.3554 38.1866 32.4345 37.9325 32.4893C36.8753 32.4899 35.8181 32.4899 34.7612 32.4899V32.4899ZM91.3273 31.842V0.549708H113.118V3.58517C113.118 4.25694 113.073 4.93259 113.131 5.59946C113.188 6.26345 112.921 6.3923 112.309 6.38884C108.01 6.36437 103.71 6.37589 99.4103 6.37589H98.0504V12.9651H98.8619C102.105 12.9651 105.348 12.9837 108.59 12.9498C109.246 12.9431 109.399 13.1511 109.384 13.7695C109.344 15.4182 109.37 17.0685 109.37 18.7999H98.0015V31.842H91.3273ZM159.786 31.8298V31.0066C159.786 24.0036 159.786 17.001 159.786 9.99803C159.786 9.07878 159.787 9.07072 160.737 9.0795C164.025 9.10973 167.326 8.96979 170.597 9.22275C175.257 9.58296 178.905 11.6796 180.632 16.2748C182.387 20.9444 181.049 26.2735 177.483 29.1931C175.383 30.9131 172.91 31.7601 170.248 31.856C166.867 31.9782 163.478 31.8946 160.093 31.897C160.024 31.8972 159.955 31.8681 159.786 31.8298V31.8298ZM165.499 27.0271C166.647 27.0271 167.722 27.0274 168.797 27.0271C172.666 27.0258 175.102 24.8482 175.535 21.0035C175.846 18.243 174.352 15.4974 171.971 14.5226C169.874 13.6642 167.683 14.1206 165.499 13.9992C165.499 18.383 165.499 22.6451 165.499 27.0271ZM59.226 14.3514H49.0758V9.21656H67.4257C67.4257 10.1853 67.377 11.1589 67.44 12.1255C67.4979 13.0165 67.2265 13.7048 66.6634 14.4044C63.6115 18.1977 60.6077 22.0292 57.5883 25.8483C57.4263 26.0531 57.2722 26.2642 57.0198 26.597H67.5475V31.8305H49.0202C49.0202 30.401 48.9992 28.9721 49.0401 27.5448C49.0472 27.2998 49.2936 27.0444 49.4673 26.8237C52.565 22.8831 55.6689 18.9475 58.7697 15.0092C58.8987 14.8449 59.0088 14.6655 59.226 14.3514V14.3514ZM69.1872 14.3572C69.1872 12.7368 69.1858 11.2514 69.1894 9.76595C69.1897 9.60211 69.2168 9.43827 69.2361 9.22577H87.5292C87.5292 10.6063 87.5443 11.9647 87.5132 13.322C87.5084 13.5266 87.3063 13.7421 87.1618 13.9257C84.0119 17.9182 80.8569 21.9068 77.7048 25.8975C77.5491 26.0946 77.4101 26.3051 77.1677 26.6423H78.086C81.0635 26.6423 84.0413 26.6548 87.0191 26.6315C87.5723 26.6273 87.7788 26.763 87.7627 27.3519C87.7222 28.8332 87.7493 30.3165 87.7493 31.8436H69.2051C69.2051 30.3643 69.1933 28.9095 69.2201 27.4555C69.2233 27.2733 69.4148 27.0829 69.5453 26.9171C72.5699 23.0702 75.5986 19.2265 78.6261 15.3816C78.8573 15.0878 79.0836 14.7901 79.418 14.357L69.1872 14.3572V14.3572Z" fill="#0A112F"/>
</g>
</g>
<defs>
<clipPath id="clip0_28_729">
<rect width="180.8" height="32" fill="white" transform="translate(0.600006 0.5)"/>
</clipPath>
</defs>
</svg>
