<svg width="200" height="41" viewBox="0 0 200 41" fill="none" xmlns="http://www.w3.org/2000/svg">
<g id="dropbox-3" clip-path="url(#clip0_28_712)">
<path id="Vector" d="M23.5158 7.89609L11.9571 15.274L23.5158 22.6519L11.9571 30.0298L0.398438 22.5904L11.9571 15.2125L0.398438 7.89609L11.9571 0.518188L23.5158 7.89609ZM11.8957 32.3661L23.4543 24.9882L35.013 32.3661L23.4543 39.744L11.8957 32.3661ZM23.5158 22.5904L35.0745 15.2125L23.5158 7.89609L35.013 0.518188L46.5717 7.89609L35.013 15.274L46.5717 22.6519L35.013 30.0298L23.5158 22.5904Z" fill="#0A112F"/>
<path id="Vector_2" d="M55.6097 7.89609H64.955C70.9188 7.89609 75.8374 11.3391 75.8374 19.2089V20.8689C75.8374 28.8001 71.2262 32.3661 65.1395 32.3661H55.6097V7.89609ZM60.8357 12.3228V27.8779H64.8321C68.2136 27.8779 70.4884 25.6645 70.4884 20.7459V19.4548C70.4884 14.5362 68.0906 12.3228 64.6476 12.3228H60.8357ZM78.6041 12.5688H82.7849L83.4612 17.1799C84.2605 14.0443 86.2894 12.3843 89.9784 12.3843H91.2695V17.6718H89.1176C84.8753 17.6718 83.8301 19.1474 83.8301 23.3282V32.4276H78.6656V12.5688H78.6041ZM92.3147 22.8978V22.3445C92.3147 15.7044 96.557 12.0769 102.336 12.0769C108.239 12.0769 112.358 15.7044 112.358 22.3445V22.8978C112.358 29.415 108.362 32.9195 102.336 32.9195C95.9422 32.858 92.3147 29.415 92.3147 22.8978ZM107.071 22.8363V22.3445C107.071 18.6555 105.226 16.4421 102.275 16.4421C99.3852 16.4421 97.4792 18.4711 97.4792 22.3445V22.8363C97.4792 26.4023 99.3237 28.4312 102.275 28.4312C105.226 28.3697 107.071 26.4023 107.071 22.8363ZM115.063 12.5688H119.367L119.859 16.3192C120.904 13.7984 123.117 12.0769 126.376 12.0769C131.418 12.0769 134.738 15.7044 134.738 22.4059V22.9593C134.738 29.4764 131.049 32.9195 126.376 32.9195C123.24 32.9195 121.089 31.5054 120.043 29.2305V39.2521H115.002L115.063 12.5688ZM129.512 22.8363V22.4059C129.512 18.4711 127.483 16.5036 124.777 16.5036C121.888 16.5036 119.982 18.717 119.982 22.4059V22.7748C119.982 26.2793 121.826 28.4927 124.716 28.4927C127.667 28.4312 129.512 26.5253 129.512 22.8363ZM142.361 28.7386L141.931 32.3661H137.504V5.92865H142.546V16.0733C143.653 13.491 145.866 12.0769 149.002 12.0769C153.736 12.1384 157.24 15.3969 157.24 21.9756V22.5904C157.24 29.169 153.92 32.9195 148.879 32.9195C145.559 32.858 143.407 31.3209 142.361 28.7386ZM151.953 22.5904V22.0985C151.953 18.4711 149.985 16.4421 147.219 16.4421C144.39 16.4421 142.423 18.717 142.423 22.16V22.5904C142.423 26.2793 144.329 28.4312 147.157 28.4312C150.17 28.4312 151.953 26.5253 151.953 22.5904ZM159.454 22.8978V22.3445C159.454 15.7044 163.696 12.0769 169.475 12.0769C175.378 12.0769 179.497 15.7044 179.497 22.3445V22.8978C179.497 29.415 175.439 32.9195 169.475 32.9195C163.081 32.858 159.454 29.415 159.454 22.8978ZM174.271 22.8363V22.3445C174.271 18.6555 172.426 16.4421 169.475 16.4421C166.586 16.4421 164.68 18.4711 164.68 22.3445V22.8363C164.68 26.4023 166.524 28.4312 169.475 28.4312C172.426 28.3697 174.271 26.4023 174.271 22.8363ZM186.26 22.0985L179.312 12.5688H185.276L189.273 18.5326L193.33 12.5688H199.233L192.162 22.0371L199.602 32.3661H193.761L189.211 25.7875L184.784 32.3661H178.698L186.26 22.0985Z" fill="#0A112F"/>
</g>
<defs>
<clipPath id="clip0_28_712">
<rect width="199.203" height="40" fill="white" transform="translate(0.398438 0.5)"/>
</clipPath>
</defs>
</svg>
