<svg width="158" height="44" viewBox="0 0 158 44" fill="none" xmlns="http://www.w3.org/2000/svg">
<path d="M30.3931 31.1652C31.0046 31.4908 31.2913 32.3121 31.0529 33.0425C30.7778 33.8844 30.1619 34.4021 29.3924 34.7527C28.2879 35.2543 27.1146 35.3423 25.9266 35.2455C23.3504 35.0343 20.8838 34.3376 18.4655 33.4605C17.5409 33.1261 16.6427 32.7199 15.74 32.3268C15.4591 32.2051 15.3246 32.2623 15.1914 32.5365C14.4819 33.9973 13.7636 35.4552 13.0262 36.9028C12.8726 37.2035 12.9121 37.3751 13.212 37.4777C15.0071 38.0893 16.7773 38.7919 18.606 39.2759C20.3001 39.7247 22.0469 40.0473 23.7893 40.2263C25.7891 40.4316 27.808 40.3964 29.8123 40.0869C31.1611 39.8787 32.4778 39.5736 33.7345 39.0368C34.9268 38.5279 36.0211 37.862 36.6648 36.6887C37.5514 35.0724 37.3026 33.4459 36.0226 32.0892C35.1506 31.1637 34.0695 30.5404 32.9342 30.0065C30.8949 29.0473 28.7487 28.3844 26.6084 27.7039C24.3115 26.9735 22.003 26.2695 19.7368 25.4481C17.4385 24.6136 15.2236 23.5796 13.3291 21.9809C11.9685 20.834 10.902 19.4744 10.3417 17.7555C9.82381 16.1685 9.77992 14.5625 10.0945 12.9345C10.1106 12.8524 10.1296 12.7717 10.1501 12.6911C10.1691 12.6192 10.191 12.5473 10.2759 12.4769C10.3914 13.0123 10.4909 13.552 10.6241 14.0829C11.1039 16.0101 12.109 17.6279 13.5441 18.986C15.1241 20.4805 17.0011 21.472 19.02 22.22C20.2664 22.682 21.5114 23.1499 22.7696 23.5825C23.9341 23.9829 25.1147 24.3364 26.2865 24.7207C28.0231 25.2912 29.7581 25.8647 31.4903 26.4469C33.0454 26.9691 34.5318 27.6437 35.926 28.5135C37.348 29.4008 38.5915 30.4715 39.3171 32.0261C39.8745 33.22 40.0413 34.4652 39.8365 35.794C39.4225 38.4751 37.7079 40.0767 35.4652 41.2441C33.7901 42.1168 31.9819 42.5597 30.1151 42.834C27.7451 43.1816 25.3736 43.1699 23.0124 42.9249C21.4617 42.7636 19.9241 42.4175 18.3968 42.0831C15.4826 41.4451 12.7351 40.3333 10.0579 39.0353C9.29276 38.6643 9.2869 38.6716 9.65996 37.9192C11.161 34.8876 12.6663 31.8575 14.163 28.8229C14.2815 28.5824 14.3868 28.5252 14.637 28.666C16.7334 29.8511 18.9615 30.7428 21.2496 31.4585C23.2216 32.076 25.2274 32.6128 27.3282 32.4925C28.1884 32.4441 29.0384 32.2784 29.7625 31.7548C29.982 31.5891 30.1649 31.3779 30.3931 31.1652Z" fill="#00AA4E"/>
<path d="M41.6989 31.1682C41.6447 30.8719 41.5804 30.5786 41.5379 30.2809C41.0859 27.1085 39.424 24.731 36.795 22.9739C34.7703 21.6202 32.551 20.6991 30.2512 19.9409C28.8965 19.4935 27.5549 19.0051 26.2017 18.5534C24.5851 18.0151 22.9495 17.5282 21.3417 16.9635C19.0493 16.1569 16.7875 15.2739 14.8696 13.7134C13.6934 12.7571 12.8492 11.5735 12.5435 10.0687C12.207 8.40406 12.561 6.85819 13.509 5.46192C14.7511 3.63152 16.5564 2.59606 18.5972 1.90379C21.036 1.07659 23.5567 0.815522 26.1095 0.926989C27.4072 0.984189 28.7048 1.16752 29.9893 1.37872C31.1904 1.57672 32.3813 1.84952 33.5589 2.15606C35.5866 2.68406 37.5455 3.41592 39.4503 4.29299C40.0165 4.55406 40.5709 4.84299 41.1429 5.09086C41.5306 5.25952 41.5233 5.48392 41.3551 5.81392C40.7947 6.91392 40.2505 8.02272 39.7005 9.12712C38.8022 10.9297 37.8966 12.7278 37.0159 14.5377C36.8725 14.831 36.7438 14.8354 36.4775 14.7254C35.0936 14.1563 33.7169 13.5623 32.3081 13.0622C30.2936 12.3479 28.2498 11.6938 26.0788 11.7305C25.1791 11.7451 24.2794 11.8962 23.4996 12.4227C23.3621 12.5151 23.2319 12.6222 23.1134 12.7381C22.7842 13.0622 22.7257 13.0637 22.4931 12.6501C21.5334 10.9487 22.221 9.67566 24.1653 9.20046C25.9588 8.76192 27.7378 8.97899 29.5212 9.36912C31.5196 9.80766 33.4346 10.4853 35.335 11.2186C35.6583 11.3433 35.7841 11.2362 35.9128 10.9766C36.5565 9.66685 37.2003 8.35859 37.86 7.05619C38.0005 6.77899 37.9712 6.62792 37.6713 6.52232C36.1572 5.98992 34.6605 5.39299 33.1259 4.93099C31.8151 4.53646 30.4721 4.21819 29.1218 3.99526C26.8542 3.62126 24.569 3.53472 22.2766 3.87059C20.7551 4.09352 19.2804 4.44846 17.9213 5.18326C16.8153 5.78019 15.8761 6.55899 15.4006 7.78512C14.9164 9.03326 15.2529 10.1025 16.1029 11.0529C16.9836 12.037 18.1247 12.6427 19.2994 13.1825C21.5978 14.237 24.0175 14.9527 26.4197 15.7183C29.3895 16.6643 32.371 17.5913 35.158 19.0183C37.4021 20.1682 39.4518 21.5821 40.8006 23.7982C41.9739 25.7269 42.3557 27.8183 41.9885 30.0477C41.9271 30.4202 41.8788 30.7957 41.8247 31.1711C41.7837 31.1711 41.7413 31.1697 41.6989 31.1682Z" fill="#0071BB"/>
<path d="M58.2464 35.7882C58.182 35.9099 56.643 38.7582 52.6725 38.7582C48.8952 38.7582 46.1521 35.6796 46.1521 31.4395C46.1521 27.1994 48.8937 24.1208 52.6725 24.1208C56.2246 24.1208 57.8573 26.7784 57.926 26.8914L58.2011 27.3504L59.3773 26.5643L59.1344 26.1492C59.051 26.007 57.0409 22.6542 52.6725 22.6542C47.9179 22.6542 44.4668 26.3487 44.4668 31.4395C44.4668 36.5303 47.9179 40.2248 52.6725 40.2248C57.5003 40.2248 59.4036 36.6344 59.4826 36.4819L59.6904 36.0771L58.5083 35.2895L58.2464 35.7882Z" fill="#0B1E1D"/>
<path d="M66.3937 27.239C62.9235 27.239 60.3077 30.0066 60.3077 33.6762C60.3077 37.3458 62.9235 40.1134 66.3937 40.1134C69.8623 40.1134 72.4796 37.3458 72.4796 33.6762C72.4796 30.0066 69.8638 27.239 66.3937 27.239ZM66.3937 38.6467C63.8847 38.6467 61.9931 36.5098 61.9931 33.6762C61.9931 30.8426 63.8847 28.7057 66.3937 28.7057C68.9026 28.7057 70.7943 30.8411 70.7943 33.6762C70.7943 36.5113 68.9026 38.6467 66.3937 38.6467Z" fill="#0B1E1D"/>
<path d="M76.4954 22.6527H74.8101V39.776H76.4954V22.6527Z" fill="#0B1E1D"/>
<path d="M81.626 22.6527H79.9407V39.776H81.626V22.6527Z" fill="#0B1E1D"/>
<path d="M89.8186 27.239C86.5313 27.239 83.9565 30.0667 83.9565 33.6762C83.9565 37.3458 86.5723 40.1134 90.0424 40.1134C93.4131 40.1134 95.0911 37.4118 95.1613 37.2959L95.4144 36.8779L94.2397 36.0947L93.9617 36.5377C93.9076 36.6227 92.6114 38.6467 90.0424 38.6467C87.7353 38.6467 85.8949 36.8222 85.6667 34.4095H95.3779L95.5183 34.1279C95.5461 34.0722 95.6836 33.7803 95.6836 33.4533C95.6822 30.0257 93.0518 27.239 89.8186 27.239ZM85.6653 32.9429C85.8891 30.5639 87.6666 28.7057 89.8186 28.7057C91.9706 28.7057 93.7467 30.5639 93.972 32.9429H85.6653Z" fill="#0B1E1D"/>
<path d="M106.789 36.5377C106.735 36.6227 105.439 38.6467 102.87 38.6467C100.361 38.6467 98.4691 36.5098 98.4691 33.6762C98.4691 30.8426 100.361 28.7057 102.87 28.7057C105.031 28.7057 106.357 30.3909 106.372 30.4085L106.66 30.7869L107.832 30.0007L107.518 29.571C107.447 29.4757 105.771 27.239 102.87 27.239C99.401 27.239 96.7838 30.0066 96.7838 33.6762C96.7838 37.3458 99.401 40.1134 102.87 40.1134C106.239 40.1134 107.918 37.4118 107.989 37.2959L108.242 36.8779L107.065 36.0947L106.789 36.5377Z" fill="#0B1E1D"/>
<path d="M120.16 22.8771C119.545 22.8771 118.983 23.4403 118.983 24.0577C118.983 24.6752 119.545 25.2384 120.16 25.2384C120.776 25.2384 121.338 24.6752 121.338 24.0577C121.338 23.4403 120.776 22.8771 120.16 22.8771Z" fill="#0B1E1D"/>
<path d="M116.671 37.6039C116.663 37.6142 115.805 38.6467 114.499 38.6467C113.113 38.6467 112.107 37.403 112.107 35.6884V29.04H115.9L116.265 27.5748H112.107V24.2191H110.805L110.471 27.5748H107.967V29.04H110.422V35.6884C110.422 38.2522 112.136 40.1119 114.499 40.1119C116.51 40.1119 117.751 38.5264 117.802 38.459L118.133 38.0263L116.962 37.2446L116.671 37.6039Z" fill="#0B1E1D"/>
<path d="M121.029 27.5748H119.344V39.7775H121.029V27.5748Z" fill="#0B1E1D"/>
<path d="M129.446 27.239C125.977 27.239 123.36 30.0066 123.36 33.6762C123.36 37.3458 125.977 40.1134 129.446 40.1134C132.915 40.1134 135.532 37.3458 135.532 33.6762C135.532 30.0066 132.916 27.239 129.446 27.239ZM129.446 38.6467C126.937 38.6467 125.045 36.5098 125.045 33.6762C125.045 30.8426 126.937 28.7057 129.446 28.7057C131.955 28.7057 133.845 30.8411 133.845 33.6762C133.845 36.5113 131.955 38.6467 129.446 38.6467Z" fill="#0B1E1D"/>
<path d="M143.502 27.239C141.632 27.239 140.183 28.2569 139.368 29.0078C139.3 28.4285 139.207 28.0017 139.201 27.9738L139.112 27.5749L137.334 27.5763L137.552 28.2437C137.555 28.2539 137.861 29.2073 137.861 30.7678V39.7761H139.546V30.9379C139.924 30.4569 141.442 28.7042 143.501 28.7042C145.436 28.7042 146.896 30.1679 146.896 32.1083V39.7761H148.581V32.1083C148.583 29.197 146.541 27.239 143.502 27.239Z" fill="#0B1E1D"/>
<path d="M51.7099 11.3125C49.4467 10.5337 47.3093 9.79887 47.3093 8.11513C47.3093 6.6382 48.8644 5.0454 51.3749 5.0454C54.1735 5.0454 55.7316 7.3642 55.7477 7.38767L56.03 7.81593L57.2033 7.03127L56.9341 6.61033C56.8551 6.48713 54.9577 3.5802 51.3749 3.5802C47.7745 3.5802 45.624 5.8858 45.624 8.11513C45.624 11.0294 48.6201 12.0605 51.2622 12.9698C53.5254 13.7486 55.6628 14.4834 55.6628 16.1671C55.6628 17.8714 54.1209 19.6842 51.2622 19.6842C47.5097 19.6842 45.9751 16.8359 45.9122 16.7157L45.6518 16.2097L44.4668 17.0017L44.6745 17.4065C44.7535 17.559 46.6539 21.1479 51.2608 21.1479C55.2137 21.1479 57.3467 18.5813 57.3467 16.1657C57.3482 13.2529 54.3535 12.2233 51.7099 11.3125Z" fill="#0B1E1D"/>
<path d="M65.3184 8.16504C63.4502 8.16504 62.0004 9.18291 61.184 9.93384C61.1167 9.35451 61.0231 8.92771 61.0158 8.89984L60.928 8.50091L59.1505 8.50237L59.3685 9.16971C59.3714 9.17851 59.6772 10.1333 59.6772 11.6938V25.1769H61.3625V19.4393C62.1628 20.1448 63.5277 21.038 65.3169 21.038C68.907 21.038 71.514 18.3305 71.514 14.6022C71.514 10.874 68.9085 8.16504 65.3184 8.16504ZM65.3184 19.5728C63.2614 19.5728 61.7429 17.8201 61.364 17.339V11.864C61.7429 11.3829 63.2614 9.63024 65.3184 9.63024C67.9327 9.63024 69.8301 11.7202 69.8301 14.6008C69.8301 17.4813 67.9327 19.5728 65.3184 19.5728Z" fill="#0B1E1D"/>
<path d="M78.5933 8.16504C75.306 8.16504 72.7312 10.9928 72.7312 14.6008C72.7312 18.2704 75.347 21.0365 78.8171 21.0365C82.1878 21.0365 83.8658 18.3349 83.936 18.2205L84.1891 17.8025L83.0114 17.0149L82.7349 17.4622C82.7218 17.4842 81.4036 19.5698 78.8171 19.5698C76.5086 19.5698 74.6696 17.7453 74.4399 15.3312H84.1511L84.2915 15.0496C84.3193 14.9938 84.4568 14.702 84.4568 14.3749C84.4554 10.9517 81.825 8.16504 78.5933 8.16504ZM74.4385 13.8689C74.6623 11.49 76.4398 9.63171 78.5918 9.63171C80.7439 9.63171 82.5199 11.49 82.7452 13.8689H74.4385Z" fill="#0B1E1D"/>
<path d="M95.5637 17.4637C95.5095 17.5502 94.2134 19.5728 91.6444 19.5728C89.1354 19.5728 87.2438 17.4358 87.2438 14.6022C87.2438 11.7686 89.1354 9.6317 91.6444 9.6317C93.8052 9.6317 95.1321 11.3169 95.1467 11.3345L95.4349 11.7129L96.6068 10.9282L96.2922 10.4985C96.222 10.4032 94.5454 8.1665 91.6444 8.1665C88.1757 8.1665 85.5585 10.9341 85.5585 14.6022C85.5585 18.2704 88.1742 21.038 91.6444 21.038C95.0136 21.038 96.6931 18.3364 96.7633 18.222L97.0164 17.804L95.8402 17.0208L95.5637 17.4637Z" fill="#0B1E1D"/>
<path d="M105.627 18.5285C105.619 18.5387 104.761 19.5727 103.455 19.5727C102.069 19.5727 101.063 18.329 101.063 16.6145V9.96607H104.856L105.221 8.50087H101.063V5.14514H99.7609L99.4274 8.50087H96.9242V9.96607H99.3791V16.6145C99.3791 19.1782 101.094 21.0379 103.456 21.0379C105.468 21.0379 106.709 19.4525 106.76 19.385L107.09 18.9523L105.92 18.1706L105.627 18.5285Z" fill="#0B1E1D"/>
<path d="M113.494 8.16504C111.823 8.16504 110.544 9.11397 109.798 9.86197C109.732 9.32077 109.646 8.92624 109.64 8.89984L109.551 8.50091L107.774 8.50237L107.992 9.16971C107.994 9.17997 108.3 10.1333 108.3 11.6938V20.7021H109.986V11.8537C110.315 11.3976 111.64 9.74317 113.494 9.74317C114.044 9.74317 114.518 9.92504 114.532 9.93091L115.002 10.1201L115.605 8.61531L115.132 8.42611C115.106 8.41437 114.472 8.16504 113.494 8.16504Z" fill="#0B1E1D"/>
<path d="M127.611 17.5091V8.50085H125.926V17.339C125.55 17.8201 124.039 19.5713 121.972 19.5713C120.036 19.5713 118.576 18.1075 118.576 16.1657V8.50085H116.891V16.1671C116.891 19.0799 118.933 21.0379 121.973 21.0379C123.841 21.0379 125.293 20.0201 126.107 19.2691C126.175 19.847 126.268 20.2753 126.274 20.3031L126.363 20.7021L128.141 20.7006L127.923 20.0333C127.917 20.0245 127.611 19.0697 127.611 17.5091Z" fill="#0B1E1D"/>
<path d="M144.059 8.16504C142.188 8.16504 140.73 9.57011 140.036 10.3914C139.504 9.53344 138.314 8.16504 136.139 8.16504C134.54 8.16504 133.291 9.10957 132.553 9.85611C132.487 9.31637 132.401 8.92624 132.395 8.89984L132.306 8.50091L130.529 8.50237L130.746 9.16971C130.749 9.17997 131.055 10.1333 131.055 11.6938V20.7021H132.741V11.8464C133.059 11.38 134.373 9.63024 136.136 9.63024C137.754 9.63024 138.974 11.094 138.974 13.0358V20.7021H140.66V13.0358C140.66 12.7058 140.605 12.279 140.57 12.0326C140.937 11.4885 142.32 9.63171 144.055 9.63171C145.673 9.63171 146.893 11.0954 146.893 13.0373V20.7036H148.579V13.0358C148.583 10.2594 146.637 8.16504 144.059 8.16504Z" fill="#0B1E1D"/>
</svg>
