<svg width="337" height="268" viewBox="0 0 337 268" fill="none" xmlns="http://www.w3.org/2000/svg">
<path d="M-0.867221 115.744C-59.3915 179.26 -55.1192 281.393 8.72388 343.862C72.567 406.332 171.764 405.443 230.288 341.927C288.813 278.411 284.54 176.278 220.697 113.809C156.854 51.3391 57.6571 52.2281 -0.867221 115.744Z" stroke="#B2E7B2"/>
<path d="M0.787961 159.052C-46.5801 210.461 -43.1251 293.128 8.55336 343.695C60.2319 394.262 140.524 393.539 187.892 342.131C235.26 290.722 231.805 208.055 180.126 157.488C128.448 106.921 48.156 107.644 0.787961 159.052Z" stroke="#B2E7B2"/>
<path d="M-34.6865 195.438C-82.0545 246.847 -78.5996 329.514 -26.9211 380.081C24.7574 430.648 105.049 429.925 152.417 378.517C199.785 327.108 196.33 244.441 144.652 193.874C92.9732 143.307 12.6815 144.03 -34.6865 195.438Z" stroke="#B2E7B2"/>
</svg>
